<svg xmlns="http://www.w3.org/2000/svg" viewBox="0 0 260 150">
<defs>
  <linearGradient id="g" x1="0" y1="0" x2="1" y2="1"><stop stop-color="#fff176"/><stop offset=".45" stop-color="#ffca28"/><stop offset="1" stop-color="#e53935"/></linearGradient>
  <filter id="s"><feDropShadow dx="0" dy="3" stdDeviation="3" flood-opacity=".28"/></filter>
</defs>
<g filter="url(#s)">
  <path d="M42 112 L74 44" stroke="#5d4037" stroke-width="5" stroke-linecap="round"/>
  <path d="M74 44 L88 24" stroke="#5d4037" stroke-width="4" stroke-linecap="round"/>
  <path d="M74 44 L60 24" stroke="#5d4037" stroke-width="4" stroke-linecap="round"/>
  <path d="M74 44 L74 18" stroke="#5d4037" stroke-width="4" stroke-linecap="round"/>
  <g stroke="url(#g)" stroke-width="5" stroke-linecap="round">
    <path d="M74 12V2"/><path d="M74 62V74"/><path d="M42 44H30"/><path d="M106 44H118"/>
    <path d="M51 21L43 13"/><path d="M97 21L105 13"/><path d="M51 67L43 75"/><path d="M97 67L105 75"/>
  </g>
  <path d="M160 116 L184 58" stroke="#5d4037" stroke-width="6" stroke-linecap="round"/>
  <path d="M178 68 C166 56 166 39 178 30 C190 39 190 56 178 68Z" fill="url(#g)"/>
  <g stroke="#ffd54f" stroke-width="4" stroke-linecap="round">
    <path d="M178 25V10"/><path d="M178 78V93"/><path d="M151 52H137"/><path d="M205 52H219"/>
    <path d="M159 33L149 23"/><path d="M197 33L207 23"/>
  </g>
  <path d="M112 116 Q128 99 144 116Z" fill="#d32f2f"/>
  <path d="M112 116 Q128 101 144 116" fill="none" stroke="#ffca28" stroke-width="4"/>
</g>
</svg>